<?xml version="1.0" standalone="no"?>
<!DOCTYPE svg PUBLIC "-//W3C//DTD SVG 20010904//EN"
 "http://www.w3.org/TR/2001/REC-SVG-20010904/DTD/svg10.dtd">
<svg version="1.0" xmlns="http://www.w3.org/2000/svg"
 width="383.000000pt" height="383.000000pt" viewBox="0 0 383.000000 383.000000"
 preserveAspectRatio="xMidYMid meet">
<metadata>
Created by potrace 1.11, written by Peter Selinger 2001-2013
</metadata>
<g transform="translate(0.000000,383.000000) scale(0.100000,-0.100000)"
fill="#000000" stroke="none">
<path d="M670 2081 l0 -1748 278 -162 277 -161 258 0 257 0 0 750 0 750 710 0
710 0 -2 272 -3 272 -245 143 -245 143 -462 0 -463 0 0 335 0 335 710 0 710 0
-2 272 -3 272 -235 137 -235 138 -1007 0 -1008 1 0 -1749z"/>
</g>
</svg>
